{
    "asset" : {
        "generator" : "Khronos glTF Blender I/O v1.3.48",
        "version" : "2.0"
    },
    "scene" : 0,
    "scenes" : [
        {
            "name" : "Scene",
            "nodes" : [
                0,
                1,
                2,
                3,
                4
            ]
        }
    ],
    "nodes" : [
        {
            "mesh" : 0,
            "name" : "1000-block"
        },
        {
            "mesh" : 1,
            "name" : "1100-block"
        },
        {
            "mesh" : 2,
            "name" : "1101-block"
        },
        {
            "mesh" : 3,
            "name" : "1111-block"
        },
        {
            "mesh" : 4,
            "name" : "1010-block"
        }
    ],
    "meshes" : [
        {
            "name" : "Cube.002",
            "primitives" : [
                {
                    "attributes" : {
                        "POSITION" : 0,
                        "NORMAL" : 1,
                        "TEXCOORD_0" : 2
                    },
                    "indices" : 3
                }
            ]
        },
        {
            "name" : "Cube.003",
            "primitives" : [
                {
                    "attributes" : {
                        "POSITION" : 4,
                        "NORMAL" : 5,
                        "TEXCOORD_0" : 6
                    },
                    "indices" : 7
                }
            ]
        },
        {
            "name" : "Cube.004",
            "primitives" : [
                {
                    "attributes" : {
                        "POSITION" : 8,
                        "NORMAL" : 9,
                        "TEXCOORD_0" : 10
                    },
                    "indices" : 11
                }
            ]
        },
        {
            "name" : "Cube.005",
            "primitives" : [
                {
                    "attributes" : {
                        "POSITION" : 12,
                        "NORMAL" : 13,
                        "TEXCOORD_0" : 14
                    },
                    "indices" : 15
                }
            ]
        },
        {
            "name" : "Cube.007",
            "primitives" : [
                {
                    "attributes" : {
                        "POSITION" : 16,
                        "NORMAL" : 17,
                        "TEXCOORD_0" : 18
                    },
                    "indices" : 19
                }
            ]
        }
    ],
    "accessors" : [
        {
            "bufferView" : 0,
            "componentType" : 5126,
            "count" : 25,
            "max" : [
                0.10000009089708328,
                0.10000000149011612,
                0.7000002264976501
            ],
            "min" : [
                -0.5,
                -0.5,
                -0.699999988079071
            ],
            "type" : "VEC3"
        },
        {
            "bufferView" : 1,
            "componentType" : 5126,
            "count" : 25,
            "type" : "VEC3"
        },
        {
            "bufferView" : 2,
            "componentType" : 5126,
            "count" : 25,
            "type" : "VEC2"
        },
        {
            "bufferView" : 3,
            "componentType" : 5123,
            "count" : 60,
            "type" : "SCALAR"
        },
        {
            "bufferView" : 4,
            "componentType" : 5126,
            "count" : 16,
            "max" : [
                0.5,
                0.10000000149011612,
                0.7000002264976501
            ],
            "min" : [
                -0.5,
                -0.5,
                -0.7000002264976501
            ],
            "type" : "VEC3"
        },
        {
            "bufferView" : 5,
            "componentType" : 5126,
            "count" : 16,
            "type" : "VEC3"
        },
        {
            "bufferView" : 6,
            "componentType" : 5126,
            "count" : 16,
            "type" : "VEC2"
        },
        {
            "bufferView" : 7,
            "componentType" : 5123,
            "count" : 30,
            "type" : "SCALAR"
        },
        {
            "bufferView" : 8,
            "componentType" : 5126,
            "count" : 36,
            "max" : [
                0.5,
                0.5,
                0.7000002264976501
            ],
            "min" : [
                -0.5,
                -0.5,
                -0.7000002264976501
            ],
            "type" : "VEC3"
        },
        {
            "bufferView" : 9,
            "componentType" : 5126,
            "count" : 36,
            "type" : "VEC3"
        },
        {
            "bufferView" : 10,
            "componentType" : 5126,
            "count" : 36,
            "type" : "VEC2"
        },
        {
            "bufferView" : 11,
            "componentType" : 5123,
            "count" : 72,
            "type" : "SCALAR"
        },
        {
            "bufferView" : 12,
            "componentType" : 5126,
            "count" : 8,
            "max" : [
                0.5,
                0.5,
                0.7000002264976501
            ],
            "min" : [
                -0.5,
                -0.5,
                -0.7000002264976501
            ],
            "type" : "VEC3"
        },
        {
            "bufferView" : 13,
            "componentType" : 5126,
            "count" : 8,
            "type" : "VEC3"
        },
        {
            "bufferView" : 14,
            "componentType" : 5126,
            "count" : 8,
            "type" : "VEC2"
        },
        {
            "bufferView" : 15,
            "componentType" : 5123,
            "count" : 12,
            "type" : "SCALAR"
        },
        {
            "bufferView" : 16,
            "componentType" : 5126,
            "count" : 40,
            "max" : [
                0.5,
                0.5,
                0.7000002264976501
            ],
            "min" : [
                -0.5,
                -0.5,
                -0.7000002264976501
            ],
            "type" : "VEC3"
        },
        {
            "bufferView" : 17,
            "componentType" : 5126,
            "count" : 40,
            "type" : "VEC3"
        },
        {
            "bufferView" : 18,
            "componentType" : 5126,
            "count" : 40,
            "type" : "VEC2"
        },
        {
            "bufferView" : 19,
            "componentType" : 5123,
            "count" : 132,
            "type" : "SCALAR"
        }
    ],
    "bufferViews" : [
        {
            "buffer" : 0,
            "byteLength" : 300,
            "byteOffset" : 0
        },
        {
            "buffer" : 0,
            "byteLength" : 300,
            "byteOffset" : 300
        },
        {
            "buffer" : 0,
            "byteLength" : 200,
            "byteOffset" : 600
        },
        {
            "buffer" : 0,
            "byteLength" : 120,
            "byteOffset" : 800
        },
        {
            "buffer" : 0,
            "byteLength" : 192,
            "byteOffset" : 920
        },
        {
            "buffer" : 0,
            "byteLength" : 192,
            "byteOffset" : 1112
        },
        {
            "buffer" : 0,
            "byteLength" : 128,
            "byteOffset" : 1304
        },
        {
            "buffer" : 0,
            "byteLength" : 60,
            "byteOffset" : 1432
        },
        {
            "buffer" : 0,
            "byteLength" : 432,
            "byteOffset" : 1492
        },
        {
            "buffer" : 0,
            "byteLength" : 432,
            "byteOffset" : 1924
        },
        {
            "buffer" : 0,
            "byteLength" : 288,
            "byteOffset" : 2356
        },
        {
            "buffer" : 0,
            "byteLength" : 144,
            "byteOffset" : 2644
        },
        {
            "buffer" : 0,
            "byteLength" : 96,
            "byteOffset" : 2788
        },
        {
            "buffer" : 0,
            "byteLength" : 96,
            "byteOffset" : 2884
        },
        {
            "buffer" : 0,
            "byteLength" : 64,
            "byteOffset" : 2980
        },
        {
            "buffer" : 0,
            "byteLength" : 24,
            "byteOffset" : 3044
        },
        {
            "buffer" : 0,
            "byteLength" : 480,
            "byteOffset" : 3068
        },
        {
            "buffer" : 0,
            "byteLength" : 480,
            "byteOffset" : 3548
        },
        {
            "buffer" : 0,
            "byteLength" : 320,
            "byteOffset" : 4028
        },
        {
            "buffer" : 0,
            "byteLength" : 264,
            "byteOffset" : 4348
        }
    ],
    "buffers" : [
        {
            "byteLength" : 4612,
            "uri" : "data:application/octet-stream;base64,"
        }
    ]
}
