{
    "asset" : {
        "generator" : "Khronos glTF Blender I/O v1.3.48",
        "version" : "2.0"
    },
    "scene" : 0,
    "scenes" : [
        {
            "name" : "Scene",
            "nodes" : [
                0
            ]
        }
    ],
    "nodes" : [
        {
            "mesh" : 0,
            "name" : "RubberDuck"
        }
    ],
    "materials" : [
        {
            "doubleSided" : true,
            "name" : "DuckBody",
            "pbrMetallicRoughness" : {}
        },
        {
            "doubleSided" : true,
            "name" : "DuckMouth",
            "pbrMetallicRoughness" : {}
        },
        {
            "doubleSided" : true,
            "name" : "DuckEyes",
            "pbrMetallicRoughness" : {}
        }
    ],
    "meshes" : [
        {
            "name" : "Cube.019",
            "primitives" : [
                {
                    "attributes" : {
                        "POSITION" : 0,
                        "NORMAL" : 1,
                        "TEXCOORD_0" : 2,
                        "COLOR_0" : 3
                    },
                    "indices" : 4,
                    "material" : 0
                },
                {
                    "attributes" : {
                        "POSITION" : 5,
                        "NORMAL" : 6,
                        "TEXCOORD_0" : 7,
                        "COLOR_0" : 8
                    },
                    "indices" : 9,
                    "material" : 1
                },
                {
                    "attributes" : {
                        "POSITION" : 10,
                        "NORMAL" : 11,
                        "TEXCOORD_0" : 12,
                        "COLOR_0" : 13
                    },
                    "indices" : 14,
                    "material" : 2
                }
            ]
        }
    ],
    "accessors" : [
        {
            "bufferView" : 0,
            "componentType" : 5126,
            "count" : 734,
            "max" : [
                0.33899053931236267,
                0.9765252470970154,
                0.43826383352279663
            ],
            "min" : [
                -0.33899053931236267,
                0.0032574827782809734,
                -0.473551869392395
            ],
            "type" : "VEC3"
        },
        {
            "bufferView" : 1,
            "componentType" : 5126,
            "count" : 734,
            "type" : "VEC3"
        },
        {
            "bufferView" : 2,
            "componentType" : 5126,
            "count" : 734,
            "type" : "VEC2"
        },
        {
            "bufferView" : 3,
            "componentType" : 5126,
            "count" : 734,
            "type" : "VEC4"
        },
        {
            "bufferView" : 4,
            "componentType" : 5123,
            "count" : 4329,
            "type" : "SCALAR"
        },
        {
            "bufferView" : 5,
            "componentType" : 5126,
            "count" : 255,
            "max" : [
                0.16938498616218567,
                0.8436661958694458,
                0.4510648548603058
            ],
            "min" : [
                -0.16938497126102448,
                0.643222987651825,
                0.2302110344171524
            ],
            "type" : "VEC3"
        },
        {
            "bufferView" : 6,
            "componentType" : 5126,
            "count" : 255,
            "type" : "VEC3"
        },
        {
            "bufferView" : 7,
            "componentType" : 5126,
            "count" : 255,
            "type" : "VEC2"
        },
        {
            "bufferView" : 8,
            "componentType" : 5126,
            "count" : 255,
            "type" : "VEC4"
        },
        {
            "bufferView" : 9,
            "componentType" : 5123,
            "count" : 1257,
            "type" : "SCALAR"
        },
        {
            "bufferView" : 10,
            "componentType" : 5126,
            "count" : 82,
            "max" : [
                0.13625533878803253,
                0.8860776424407959,
                0.27825018763542175
            ],
            "min" : [
                -0.13625533878803253,
                0.8037240505218506,
                0.21097147464752197
            ],
            "type" : "VEC3"
        },
        {
            "bufferView" : 11,
            "componentType" : 5126,
            "count" : 82,
            "type" : "VEC3"
        },
        {
            "bufferView" : 12,
            "componentType" : 5126,
            "count" : 82,
            "type" : "VEC2"
        },
        {
            "bufferView" : 13,
            "componentType" : 5126,
            "count" : 82,
            "type" : "VEC4"
        },
        {
            "bufferView" : 14,
            "componentType" : 5123,
            "count" : 384,
            "type" : "SCALAR"
        }
    ],
    "bufferViews" : [
        {
            "buffer" : 0,
            "byteLength" : 8808,
            "byteOffset" : 0
        },
        {
            "buffer" : 0,
            "byteLength" : 8808,
            "byteOffset" : 8808
        },
        {
            "buffer" : 0,
            "byteLength" : 5872,
            "byteOffset" : 17616
        },
        {
            "buffer" : 0,
            "byteLength" : 11744,
            "byteOffset" : 23488
        },
        {
            "buffer" : 0,
            "byteLength" : 8658,
            "byteOffset" : 35232
        },
        {
            "buffer" : 0,
            "byteLength" : 3060,
            "byteOffset" : 43892
        },
        {
            "buffer" : 0,
            "byteLength" : 3060,
            "byteOffset" : 46952
        },
        {
            "buffer" : 0,
            "byteLength" : 2040,
            "byteOffset" : 50012
        },
        {
            "buffer" : 0,
            "byteLength" : 4080,
            "byteOffset" : 52052
        },
        {
            "buffer" : 0,
            "byteLength" : 2514,
            "byteOffset" : 56132
        },
        {
            "buffer" : 0,
            "byteLength" : 984,
            "byteOffset" : 58648
        },
        {
            "buffer" : 0,
            "byteLength" : 984,
            "byteOffset" : 59632
        },
        {
            "buffer" : 0,
            "byteLength" : 656,
            "byteOffset" : 60616
        },
        {
            "buffer" : 0,
            "byteLength" : 1312,
            "byteOffset" : 61272
        },
        {
            "buffer" : 0,
            "byteLength" : 768,
            "byteOffset" : 62584
        }
    ],
    "buffers" : [
        {
            "byteLength" : 63352,
            "uri" : "data:application/octet-stream;base64,"
        }
    ]
}
