{
    "asset" : {
        "generator" : "Khronos glTF Blender I/O v1.3.48",
        "version" : "2.0"
    },
    "scene" : 0,
    "scenes" : [
        {
            "name" : "Scene",
            "nodes" : [
                0,
                1,
                2,
                3
            ]
        }
    ],
    "nodes" : [
        {
            "mesh" : 0,
            "name" : "0-faucet"
        },
        {
            "mesh" : 1,
            "name" : "1-sink"
        },
        {
            "mesh" : 2,
            "name" : "door"
        },
        {
            "mesh" : 3,
            "name" : "door-core"
        }
    ],
    "materials" : [
        {
            "doubleSided" : true,
            "emissiveFactor" : [
                0,
                0,
                0
            ],
            "name" : "Material.001",
            "pbrMetallicRoughness" : {
                "baseColorFactor" : [
                    0.800000011920929,
                    0.800000011920929,
                    0.800000011920929,
                    1
                ],
                "metallicFactor" : 0,
                "roughnessFactor" : 0.5
            }
        },
        {
            "doubleSided" : true,
            "name" : "Material.002",
            "pbrMetallicRoughness" : {}
        }
    ],
    "meshes" : [
        {
            "name" : "Circle",
            "primitives" : [
                {
                    "attributes" : {
                        "POSITION" : 0,
                        "NORMAL" : 1,
                        "TEXCOORD_0" : 2
                    },
                    "indices" : 3,
                    "material" : 0
                }
            ]
        },
        {
            "name" : "Circle.001",
            "primitives" : [
                {
                    "attributes" : {
                        "POSITION" : 4,
                        "NORMAL" : 5,
                        "TEXCOORD_0" : 6
                    },
                    "indices" : 7,
                    "material" : 1
                },
                {
                    "attributes" : {
                        "POSITION" : 8,
                        "NORMAL" : 9,
                        "TEXCOORD_0" : 10
                    },
                    "indices" : 11,
                    "material" : 0
                }
            ]
        },
        {
            "name" : "Cube",
            "primitives" : [
                {
                    "attributes" : {
                        "POSITION" : 12,
                        "NORMAL" : 13,
                        "TEXCOORD_0" : 14
                    },
                    "indices" : 15
                }
            ]
        },
        {
            "name" : "Cube.001",
            "primitives" : [
                {
                    "attributes" : {
                        "POSITION" : 16,
                        "NORMAL" : 17,
                        "TEXCOORD_0" : 18
                    },
                    "indices" : 19
                }
            ]
        }
    ],
    "accessors" : [
        {
            "bufferView" : 0,
            "componentType" : 5126,
            "count" : 353,
            "max" : [
                0.5250000357627869,
                0.8550000190734863,
                0.625
            ],
            "min" : [
                -0.5250000357627869,
                -0.28957462310791016,
                -0.39892807602882385
            ],
            "type" : "VEC3"
        },
        {
            "bufferView" : 1,
            "componentType" : 5126,
            "count" : 353,
            "type" : "VEC3"
        },
        {
            "bufferView" : 2,
            "componentType" : 5126,
            "count" : 353,
            "type" : "VEC2"
        },
        {
            "bufferView" : 3,
            "componentType" : 5123,
            "count" : 1800,
            "type" : "SCALAR"
        },
        {
            "bufferView" : 4,
            "componentType" : 5126,
            "count" : 25,
            "max" : [
                0.5000001788139343,
                0.49999988079071045,
                0.5
            ],
            "min" : [
                -0.5000002384185791,
                -0.500000536441803,
                0.5
            ],
            "type" : "VEC3"
        },
        {
            "bufferView" : 5,
            "componentType" : 5126,
            "count" : 25,
            "type" : "VEC3"
        },
        {
            "bufferView" : 6,
            "componentType" : 5126,
            "count" : 25,
            "type" : "VEC2"
        },
        {
            "bufferView" : 7,
            "componentType" : 5123,
            "count" : 72,
            "type" : "SCALAR"
        },
        {
            "bufferView" : 8,
            "componentType" : 5126,
            "count" : 156,
            "max" : [
                0.5999815464019775,
                0.5999749302864075,
                0.5
            ],
            "min" : [
                -0.5999815464019775,
                -0.5999755859375,
                0.30035990476608276
            ],
            "type" : "VEC3"
        },
        {
            "bufferView" : 9,
            "componentType" : 5126,
            "count" : 156,
            "type" : "VEC3"
        },
        {
            "bufferView" : 10,
            "componentType" : 5126,
            "count" : 156,
            "type" : "VEC2"
        },
        {
            "bufferView" : 11,
            "componentType" : 5123,
            "count" : 576,
            "type" : "SCALAR"
        },
        {
            "bufferView" : 12,
            "componentType" : 5126,
            "count" : 318,
            "max" : [
                0.6000000238418579,
                1.5,
                0.6000000238418579
            ],
            "min" : [
                -0.6000000238418579,
                -1.5,
                -0.6000000238418579
            ],
            "type" : "VEC3"
        },
        {
            "bufferView" : 13,
            "componentType" : 5126,
            "count" : 318,
            "type" : "VEC3"
        },
        {
            "bufferView" : 14,
            "componentType" : 5126,
            "count" : 318,
            "type" : "VEC2"
        },
        {
            "bufferView" : 15,
            "componentType" : 5123,
            "count" : 708,
            "type" : "SCALAR"
        },
        {
            "bufferView" : 16,
            "componentType" : 5126,
            "count" : 18,
            "max" : [
                0.5454545617103577,
                1.2000000476837158,
                0.5454545617103577
            ],
            "min" : [
                -0.5454545617103577,
                -1.2000000476837158,
                -0.5454545617103577
            ],
            "type" : "VEC3"
        },
        {
            "bufferView" : 17,
            "componentType" : 5126,
            "count" : 18,
            "type" : "VEC3"
        },
        {
            "bufferView" : 18,
            "componentType" : 5126,
            "count" : 18,
            "type" : "VEC2"
        },
        {
            "bufferView" : 19,
            "componentType" : 5123,
            "count" : 48,
            "type" : "SCALAR"
        }
    ],
    "bufferViews" : [
        {
            "buffer" : 0,
            "byteLength" : 4236,
            "byteOffset" : 0
        },
        {
            "buffer" : 0,
            "byteLength" : 4236,
            "byteOffset" : 4236
        },
        {
            "buffer" : 0,
            "byteLength" : 2824,
            "byteOffset" : 8472
        },
        {
            "buffer" : 0,
            "byteLength" : 3600,
            "byteOffset" : 11296
        },
        {
            "buffer" : 0,
            "byteLength" : 300,
            "byteOffset" : 14896
        },
        {
            "buffer" : 0,
            "byteLength" : 300,
            "byteOffset" : 15196
        },
        {
            "buffer" : 0,
            "byteLength" : 200,
            "byteOffset" : 15496
        },
        {
            "buffer" : 0,
            "byteLength" : 144,
            "byteOffset" : 15696
        },
        {
            "buffer" : 0,
            "byteLength" : 1872,
            "byteOffset" : 15840
        },
        {
            "buffer" : 0,
            "byteLength" : 1872,
            "byteOffset" : 17712
        },
        {
            "buffer" : 0,
            "byteLength" : 1248,
            "byteOffset" : 19584
        },
        {
            "buffer" : 0,
            "byteLength" : 1152,
            "byteOffset" : 20832
        },
        {
            "buffer" : 0,
            "byteLength" : 3816,
            "byteOffset" : 21984
        },
        {
            "buffer" : 0,
            "byteLength" : 3816,
            "byteOffset" : 25800
        },
        {
            "buffer" : 0,
            "byteLength" : 2544,
            "byteOffset" : 29616
        },
        {
            "buffer" : 0,
            "byteLength" : 1416,
            "byteOffset" : 32160
        },
        {
            "buffer" : 0,
            "byteLength" : 216,
            "byteOffset" : 33576
        },
        {
            "buffer" : 0,
            "byteLength" : 216,
            "byteOffset" : 33792
        },
        {
            "buffer" : 0,
            "byteLength" : 144,
            "byteOffset" : 34008
        },
        {
            "buffer" : 0,
            "byteLength" : 96,
            "byteOffset" : 34152
        }
    ],
    "buffers" : [
        {
            "byteLength" : 34248,
            "uri" : "data:application/octet-stream;base64,"
        }
    ]
}
