{
    "asset" : {
        "generator" : "Khronos glTF Blender I/O v1.3.48",
        "version" : "2.0"
    },
    "scene" : 0,
    "scenes" : [
        {
            "name" : "Scene",
            "nodes" : [
                0,
                1,
                2
            ]
        }
    ],
    "nodes" : [
        {
            "mesh" : 0,
            "name" : "0-faucet"
        },
        {
            "mesh" : 1,
            "name" : "1-sink"
        },
        {
            "mesh" : 2,
            "name" : "Cube"
        }
    ],
    "materials" : [
        {
            "doubleSided" : true,
            "emissiveFactor" : [
                0,
                0,
                0
            ],
            "name" : "Material.001",
            "pbrMetallicRoughness" : {
                "baseColorFactor" : [
                    0.800000011920929,
                    0.800000011920929,
                    0.800000011920929,
                    1
                ],
                "metallicFactor" : 0,
                "roughnessFactor" : 0.5
            }
        },
        {
            "doubleSided" : true,
            "name" : "Material.002",
            "pbrMetallicRoughness" : {}
        }
    ],
    "meshes" : [
        {
            "name" : "Circle",
            "primitives" : [
                {
                    "attributes" : {
                        "POSITION" : 0,
                        "NORMAL" : 1,
                        "TEXCOORD_0" : 2
                    },
                    "indices" : 3,
                    "material" : 0
                }
            ]
        },
        {
            "name" : "Circle.001",
            "primitives" : [
                {
                    "attributes" : {
                        "POSITION" : 4,
                        "NORMAL" : 5,
                        "TEXCOORD_0" : 6
                    },
                    "indices" : 7,
                    "material" : 1
                },
                {
                    "attributes" : {
                        "POSITION" : 8,
                        "NORMAL" : 9,
                        "TEXCOORD_0" : 10
                    },
                    "indices" : 11,
                    "material" : 0
                }
            ]
        },
        {
            "name" : "Cube",
            "primitives" : [
                {
                    "attributes" : {
                        "POSITION" : 12,
                        "NORMAL" : 13,
                        "TEXCOORD_0" : 14
                    },
                    "indices" : 15
                }
            ]
        }
    ],
    "accessors" : [
        {
            "bufferView" : 0,
            "componentType" : 5126,
            "count" : 367,
            "max" : [
                0.5250000357627869,
                0.8550000190734863,
                0.625
            ],
            "min" : [
                -0.5250000357627869,
                -0.28957462310791016,
                -0.39892807602882385
            ],
            "type" : "VEC3"
        },
        {
            "bufferView" : 1,
            "componentType" : 5126,
            "count" : 367,
            "type" : "VEC3"
        },
        {
            "bufferView" : 2,
            "componentType" : 5126,
            "count" : 367,
            "type" : "VEC2"
        },
        {
            "bufferView" : 3,
            "componentType" : 5123,
            "count" : 1800,
            "type" : "SCALAR"
        },
        {
            "bufferView" : 4,
            "componentType" : 5126,
            "count" : 25,
            "max" : [
                0.5000001788139343,
                0.49999988079071045,
                0.5
            ],
            "min" : [
                -0.5000002384185791,
                -0.500000536441803,
                0.5
            ],
            "type" : "VEC3"
        },
        {
            "bufferView" : 5,
            "componentType" : 5126,
            "count" : 25,
            "type" : "VEC3"
        },
        {
            "bufferView" : 6,
            "componentType" : 5126,
            "count" : 25,
            "type" : "VEC2"
        },
        {
            "bufferView" : 7,
            "componentType" : 5123,
            "count" : 72,
            "type" : "SCALAR"
        },
        {
            "bufferView" : 8,
            "componentType" : 5126,
            "count" : 174,
            "max" : [
                0.5999815464019775,
                0.5999749302864075,
                0.5
            ],
            "min" : [
                -0.5999815464019775,
                -0.5999755859375,
                0.30035990476608276
            ],
            "type" : "VEC3"
        },
        {
            "bufferView" : 9,
            "componentType" : 5126,
            "count" : 174,
            "type" : "VEC3"
        },
        {
            "bufferView" : 10,
            "componentType" : 5126,
            "count" : 174,
            "type" : "VEC2"
        },
        {
            "bufferView" : 11,
            "componentType" : 5123,
            "count" : 576,
            "type" : "SCALAR"
        },
        {
            "bufferView" : 12,
            "componentType" : 5126,
            "count" : 24,
            "max" : [
                0.5,
                0.5,
                0.5
            ],
            "min" : [
                -0.5,
                -0.5,
                -0.5
            ],
            "type" : "VEC3"
        },
        {
            "bufferView" : 13,
            "componentType" : 5126,
            "count" : 24,
            "type" : "VEC3"
        },
        {
            "bufferView" : 14,
            "componentType" : 5126,
            "count" : 24,
            "type" : "VEC2"
        },
        {
            "bufferView" : 15,
            "componentType" : 5123,
            "count" : 36,
            "type" : "SCALAR"
        }
    ],
    "bufferViews" : [
        {
            "buffer" : 0,
            "byteLength" : 4404,
            "byteOffset" : 0
        },
        {
            "buffer" : 0,
            "byteLength" : 4404,
            "byteOffset" : 4404
        },
        {
            "buffer" : 0,
            "byteLength" : 2936,
            "byteOffset" : 8808
        },
        {
            "buffer" : 0,
            "byteLength" : 3600,
            "byteOffset" : 11744
        },
        {
            "buffer" : 0,
            "byteLength" : 300,
            "byteOffset" : 15344
        },
        {
            "buffer" : 0,
            "byteLength" : 300,
            "byteOffset" : 15644
        },
        {
            "buffer" : 0,
            "byteLength" : 200,
            "byteOffset" : 15944
        },
        {
            "buffer" : 0,
            "byteLength" : 144,
            "byteOffset" : 16144
        },
        {
            "buffer" : 0,
            "byteLength" : 2088,
            "byteOffset" : 16288
        },
        {
            "buffer" : 0,
            "byteLength" : 2088,
            "byteOffset" : 18376
        },
        {
            "buffer" : 0,
            "byteLength" : 1392,
            "byteOffset" : 20464
        },
        {
            "buffer" : 0,
            "byteLength" : 1152,
            "byteOffset" : 21856
        },
        {
            "buffer" : 0,
            "byteLength" : 288,
            "byteOffset" : 23008
        },
        {
            "buffer" : 0,
            "byteLength" : 288,
            "byteOffset" : 23296
        },
        {
            "buffer" : 0,
            "byteLength" : 192,
            "byteOffset" : 23584
        },
        {
            "buffer" : 0,
            "byteLength" : 72,
            "byteOffset" : 23776
        }
    ],
    "buffers" : [
        {
            "byteLength" : 23848,
            "uri" : "data:application/octet-stream;base64,"
        }
    ]
}
